<svg xmlns="http://www.w3.org/2000/svg" viewBox="0 0 805 860">
  <defs>
    <style>
      .cls-1 {
        fill: #ead5b7;
      }
    </style>
  </defs>
  <g id="Layer_2" data-name="Layer 2">
    <g id="glass">
      <path class="cls-1" d="M32,200.67V570.05a87.52,87.52,0,0,0,87.52,87.53h106a31.2,31.2,0,0,1,31.2,31.19v31.11h.56a44.64,44.64,0,0,0-44.64,44.64h0a44.65,44.65,0,0,0,44.64,44.64H727.57a44.64,44.64,0,0,0,44.64-44.64h0a44.63,44.63,0,0,0-44.64-44.64h.57V71.39a20.55,20.55,0,0,0-20.55-20.55H277.21a20.55,20.55,0,0,0-20.54,20.55V82a31.2,31.2,0,0,1-31.2,31.19H119.52A87.52,87.52,0,0,0,32,200.67Zm67.57,0a20,20,0,0,1,20-19.95h106a31.2,31.2,0,0,1,31.2,31.19V558.81a31.2,31.2,0,0,1-31.2,31.2H119.52a20,20,0,0,1-20-20Z"/>
    </g>
  </g>
</svg>
