<svg xmlns="http://www.w3.org/2000/svg" viewBox="0 0 805 860">
  <defs>
    <style>
      .cls-1 {
        fill: #ead5b7;
      }
    </style>
  </defs>
  <g id="Layer_2" data-name="Layer 2">
    <g id="glass">
      <path class="cls-1" d="M685.08,113.14h-106A31.19,31.19,0,0,1,547.94,82V71.39a20.55,20.55,0,0,0-20.55-20.55H97A20.55,20.55,0,0,0,76.47,71.39V719.88H77a44.64,44.64,0,0,0-44.64,44.64h0A44.65,44.65,0,0,0,77,809.16H547.37A44.64,44.64,0,0,0,592,764.52h0a44.63,44.63,0,0,0-44.64-44.64h.57V688.77a31.19,31.19,0,0,1,31.19-31.19h106a87.53,87.53,0,0,0,87.53-87.53V200.67A87.53,87.53,0,0,0,685.08,113.14Zm20,456.91a20,20,0,0,1-20,20h-106a31.19,31.19,0,0,1-31.19-31.2V211.9a31.19,31.19,0,0,1,31.19-31.19h106a20,20,0,0,1,20,19.95Z"/>
    </g>
  </g>
</svg>
